# xmcd
#
# Track frame offsets:
# 150
# 26722
# 71650
# 86198
# 101423
# 120623
# 131423
# 143065
# 151426
# 162336
# 173101
# 184419
# 194517
#
# Disc length: 3570 seconds
#
# Revision: 0
# Processed by: cddbd v1.4PL0 Copyright (c) Steve Scherf et al.
# Submitted via: Audion 2.5.0 (http://www.panic.com/audion/)
#
DISCID=b80df00d
DTITLE=deh - debussy lovers
DYEAR=1900
DGENRE=
TTITLE0=1
TTITLE1=2
TTITLE2=3
TTITLE3=4
TTITLE4=5
TTITLE5=6
TTITLE6=7
TTITLE7=8
TTITLE8=9
TTITLE9=0
TTITLE10=11
TTITLE11=22
TTITLE12=33
EXTD=
EXTT0=
EXTT1=
EXTT2=
EXTT3=
EXTT4=
EXTT5=
EXTT6=
EXTT7=
EXTT8=
EXTT9=
EXTT10=
EXTT11=
EXTT12=
PLAYORDER=
